<?xml version="1.0" encoding="utf-8"?>
<svg viewBox="324.826 101.928 158.495 179.292" xmlns="http://www.w3.org/2000/svg">
  <path d="M 376.159 131.935 Q 378.298 130.717 380.437 131.935 L 429.631 159.94 Q 431.77 161.158 431.77 163.593 L 431.77 219.603 Q 431.77 222.039 429.631 223.256 L 380.437 251.261 Q 378.298 252.479 376.159 251.261 L 326.965 223.256 Q 324.826 222.039 324.826 219.603 L 324.826 163.593 Q 324.826 161.158 326.965 159.94 Z" style="fill: rgba(26, 237, 96, 0.38);"/>
  <path d="M 427.71 161.285 Q 429.849 160.067 431.988 161.285 L 481.182 189.29 Q 483.321 190.508 483.321 192.943 L 483.321 248.953 Q 483.321 251.389 481.182 252.606 L 431.988 280.611 Q 429.849 281.829 427.71 280.611 L 378.516 252.606 Q 376.377 251.389 376.377 248.953 L 376.377 192.943 Q 376.377 190.508 378.516 189.29 Z" style="fill: rgba(50, 237, 184, 0.53);"/>
  <path d="M 427.534 102.537 Q 429.673 101.319 431.812 102.537 L 481.006 130.542 Q 483.145 131.76 483.145 134.195 L 483.145 190.205 Q 483.145 192.64 481.006 193.858 L 431.812 221.863 Q 429.673 223.081 427.534 221.863 L 378.34 193.858 Q 376.201 192.641 376.201 190.205 L 376.201 134.195 Q 376.201 131.759 378.34 130.542 Z" style="fill: rgba(77, 227, 107, 0.62);"/>
</svg>